<svg width="24" height="23" viewBox="0 0 24 23" fill="none" xmlns="http://www.w3.org/2000/svg">
<path d="M16.7215 6.0563H6.55957M16.7215 6.0563H18.0514C20.1709 6.0563 21.2306 6.0563 21.8365 6.72996C22.4424 7.40361 22.3254 8.45175 22.0914 10.548L21.7907 13.2406C21.313 17.5196 21.0741 19.659 19.6272 20.9477C18.1804 22.2364 16.0004 22.2365 11.6405 22.2365C7.28067 22.2365 5.10073 22.2364 3.65387 20.9477C2.20701 19.659 1.96813 17.5196 1.49037 13.2406L1.18974 10.548C0.955683 8.45175 0.838654 7.40361 1.44455 6.72996C2.05044 6.0563 3.11018 6.0563 5.22966 6.0563H6.55957M16.7215 6.0563C16.7215 3.26378 14.4467 1 11.6405 1C8.90369 1 6.67224 3.15336 6.56371 5.85042C6.56096 5.91871 6.55957 5.98734 6.55957 6.0563" stroke="black" stroke-width="1.5"/>
<path d="M17.7378 10.1013C17.7378 10.6599 17.2828 11.1126 16.7216 11.1126C16.1604 11.1126 15.7054 10.6599 15.7054 10.1013C15.7054 9.54284 16.1604 9.09009 16.7216 9.09009C17.2828 9.09009 17.7378 9.54284 17.7378 10.1013Z" fill="black"/>
<path d="M7.57585 10.1013C7.57585 10.6599 7.12088 11.1126 6.55965 11.1126C5.99842 11.1126 5.54346 10.6599 5.54346 10.1013C5.54346 9.54284 5.99842 9.09009 6.55965 9.09009C7.12088 9.09009 7.57585 9.54284 7.57585 10.1013Z" fill="black"/>
</svg>
