<svg width="18" height="23" viewBox="0 0 18 23" fill="none" xmlns="http://www.w3.org/2000/svg">
<path d="M13.0922 5.65543C13.0922 7.67946 11.4424 9.32648 9.3996 9.32648V10.8265C12.264 10.8265 14.5922 8.51476 14.5922 5.65543H13.0922ZM9.3996 9.32648C7.35677 9.32648 5.70697 7.67946 5.70697 5.65543H4.20697C4.20697 8.51476 6.53524 10.8265 9.3996 10.8265V9.32648ZM5.70697 5.65543C5.70697 3.6314 7.35677 1.98438 9.3996 1.98438V0.484375C6.53524 0.484375 4.20697 2.7961 4.20697 5.65543H5.70697ZM9.3996 1.98438C11.4424 1.98438 13.0922 3.6314 13.0922 5.65543H14.5922C14.5922 2.7961 12.264 0.484375 9.3996 0.484375V1.98438ZM6.06763 14.1423H12.7316V12.6423H6.06763V14.1423ZM12.7316 21.4844H6.06763V22.9844H12.7316V21.4844ZM6.06763 21.4844C4.0248 21.4844 2.375 19.8373 2.375 17.8133H0.875C0.875 20.6727 3.20327 22.9844 6.06763 22.9844V21.4844ZM16.4242 17.8133C16.4242 19.8373 14.7744 21.4844 12.7316 21.4844V22.9844C15.5959 22.9844 17.9242 20.6727 17.9242 17.8133H16.4242ZM12.7316 14.1423C14.7744 14.1423 16.4242 15.7893 16.4242 17.8133H17.9242C17.9242 14.954 15.5959 12.6423 12.7316 12.6423V14.1423ZM6.06763 12.6423C3.20327 12.6423 0.875 14.954 0.875 17.8133H2.375C2.375 15.7893 4.0248 14.1423 6.06763 14.1423V12.6423Z" fill="black"/>
</svg>
